<?xml version="1.0" encoding="utf-8"?>
<!-- Generator: Adobe Illustrator 21.1.0, SVG Export Plug-In . SVG Version: 6.00 Build 0)  -->
<svg version="1.1" id="Layer_1" xmlns="http://www.w3.org/2000/svg" xmlns:xlink="http://www.w3.org/1999/xlink" x="0px" y="0px"
	 viewBox="0 0 16 16" style="enable-background:new 0 0 16 16;" xml:space="preserve">
<style type="text/css">
	.st0{fill:#333333;}
	.st1{fill:#FFFFFF;}
</style>
<title>util-i_logout_&amp;lt;16p</title>
<path class="st0" d="M6,7.4H4V3.8c0.2-2.1,1.9-3.7,4-3.7c2.1,0.1,3.8,1.6,4,3.7v3.6h-2V3.7C9.9,2.7,9.1,1.9,8.1,2H8l0,0
	C7,2,6.1,2.7,6,3.8V7.4z"/>
<rect x="2" y="7" class="st0" width="12" height="9"/>
<path class="st1" d="M9.5,11.5C9.5,12.3,8.8,13,8,13s-1.5-0.7-1.5-1.5S7.2,10,8,10S9.5,10.7,9.5,11.5"/>
</svg>
